<svg xmlns="http://www.w3.org/2000/svg" xmlns:xlink="http://www.w3.org/1999/xlink" version="1.1" x="0px" y="0px" viewBox="0 0 100 100" style="enable-background:new 0 0 100 100;" xml:space="preserve"><symbol viewBox="-12.754 -31.378 25.509 59.818"><g><path style="" d="M6.112,10.396H-6.112    c-2.003,0-3.643-1.639-3.643-3.643V-8.43c0-1.816,1.486-3.302,3.302-3.302h0.36v-13.344c0-1.816,1.486-3.302,3.302-3.302H2.79    c1.816,0,3.302,1.486,3.302,3.302v13.344h0.36c1.816,0,3.302,1.486,3.302,3.302V6.754C9.754,8.757,8.115,10.396,6.112,10.396z" fill="#FFFFFF" stroke="#F1F2F2" stroke-width="6" stroke-miterlimit="3"></path><g><path style="" d="M-0.646,18.281c-1.252,0-2.271,1.019-2.271,2.271v2.617c0,1.252,1.019,2.271,2.271,2.271h1.292     c1.252,0,2.271-1.019,2.271-2.271v-2.617c0-1.252-1.019-2.271-2.271-2.271H-0.646z" fill="#FFFFFF"></path><path style="" d="M0.646,28.44h-1.292c-2.899,0-5.271-2.372-5.271-5.271v-2.617c0-2.899,2.372-5.271,5.271-5.271     h1.292c2.899,0,5.271,2.372,5.271,5.271v2.617C5.917,26.068,3.545,28.44,0.646,28.44L0.646,28.44z" fill="#F1F2F2"></path></g></g><g><path style="" d="M6.112,10.396H-6.112c-2.003,0-3.643-1.639-3.643-3.643V-8.43    c0-1.816,1.486-3.302,3.302-3.302h0.36v-13.344c0-1.816,1.486-3.302,3.302-3.302H2.79c1.816,0,3.302,1.486,3.302,3.302v13.344    h0.36c1.816,0,3.302,1.486,3.302,3.302V6.754C9.754,8.757,8.115,10.396,6.112,10.396z" stroke="#000000" stroke-miterlimit="3"></path><g><path d="M-0.646,15.781c-2.631,0-4.771,2.14-4.771,4.771v2.617c0,2.631,2.14,4.771,4.771,4.771h1.292     c2.631,0,4.771-2.14,4.771-4.771v-2.617c0-2.631-2.14-4.771-4.771-4.771H-0.646z"></path><path d="M0.646,27.44c2.355,0,4.271-1.916,4.271-4.271v-2.617c0-2.355-1.916-4.271-4.271-4.271h-1.292     c-2.355,0-4.271,1.916-4.271,4.271v2.617c0,2.355,1.916,4.271,4.271,4.271H0.646 M0.646,28.44h-1.292     c-2.899,0-5.271-2.372-5.271-5.271v-2.617c0-2.899,2.372-5.271,5.271-5.271h1.292c2.899,0,5.271,2.372,5.271,5.271v2.617     C5.917,26.068,3.545,28.44,0.646,28.44L0.646,28.44z"></path></g></g></symbol><symbol viewBox="-12.754 -31.379 25.509 59.819"><g><path style="" d="M6.112,10.396H-6.112    c-2.003,0-3.643-1.639-3.643-3.643V-8.431c0-1.816,1.486-3.302,3.302-3.302h0.36v-13.344c0-1.816,1.486-3.302,3.302-3.302H2.79    c1.816,0,3.302,1.486,3.302,3.302v13.344h0.36c1.816,0,3.302,1.486,3.302,3.302V6.753C9.754,8.757,8.115,10.396,6.112,10.396z" fill="#FFFFFF" stroke="#F1F2F2" stroke-width="6" stroke-miterlimit="3"></path><g><path style="" d="M-0.646,18.281c-1.252,0-2.271,1.019-2.271,2.271v2.617c0,1.252,1.019,2.271,2.271,2.271h1.292     c1.252,0,2.271-1.019,2.271-2.271v-2.617c0-1.252-1.019-2.271-2.271-2.271H-0.646z" fill="#FFFFFF"></path><path style="" d="M0.646,28.44h-1.292c-2.899,0-5.271-2.372-5.271-5.271v-2.617c0-2.899,2.372-5.271,5.271-5.271     h1.292c2.899,0,5.271,2.372,5.271,5.271v2.617C5.917,26.068,3.545,28.44,0.646,28.44L0.646,28.44z" fill="#F1F2F2"></path></g></g><g><path style="" d="M6.112,10.396H-6.112    c-2.003,0-3.643-1.639-3.643-3.643V-8.431c0-1.816,1.486-3.302,3.302-3.302h0.36v-13.344c0-1.816,1.486-3.302,3.302-3.302H2.79    c1.816,0,3.302,1.486,3.302,3.302v13.344h0.36c1.816,0,3.302,1.486,3.302,3.302V6.753C9.754,8.757,8.115,10.396,6.112,10.396z" fill="#FFFFFF" stroke="#000000" stroke-width="3" stroke-miterlimit="3"></path><g><path style="" d="M-0.646,16.656c-2.148,0-3.896,1.748-3.896,3.896v2.617c0,2.148,1.748,3.896,3.896,3.896h1.292     c2.148,0,3.896-1.748,3.896-3.896v-2.617c0-2.148-1.748-3.896-3.896-3.896H-0.646z" fill="#FFFFFF"></path><path d="M0.646,25.69c1.39,0,2.521-1.131,2.521-2.521v-2.617c0-1.39-1.131-2.521-2.521-2.521h-1.292     c-1.39,0-2.521,1.131-2.521,2.521v2.617c0,1.39,1.131,2.521,2.521,2.521H0.646 M0.646,28.44h-1.292     c-2.899,0-5.271-2.372-5.271-5.271v-2.617c0-2.899,2.372-5.271,5.271-5.271h1.292c2.899,0,5.271,2.372,5.271,5.271v2.617     C5.917,26.068,3.545,28.44,0.646,28.44L0.646,28.44z"></path></g></g></symbol><symbol viewBox="-14.821 -32.984 29.644 65.967"><g><path style="" d="M3.372,9.536h-6.744    c-4.372,0-7.95-3.577-7.95-7.95v-11.902c0-2.108,1.725-3.832,3.832-3.832h0.418v-11.503c0-2.108,1.725-3.832,3.832-3.832h6.478    c2.108,0,3.832,1.725,3.832,3.832v11.503H7.49c2.108,0,3.832,1.725,3.832,3.832V1.586C11.322,5.959,7.745,9.536,3.372,9.536z" fill="#FFFFFF" stroke="#F2F2F2" stroke-width="7" stroke-miterlimit="3"></path><path style="" d="M0.75,14.209h-1.5    c-3.365,0-6.118,2.753-6.118,6.118v3.038c0,3.365,2.753,6.118,6.118,6.118h1.5c3.365,0,6.118-2.753,6.118-6.118v-3.038    C6.868,16.962,4.115,14.209,0.75,14.209z" fill="#FFFFFF" stroke="#F2F2F2" stroke-width="7" stroke-miterlimit="3"></path></g><g><g><path d="M-3.238-28.483c-1.562,0-2.833,1.271-2.833,2.832v12.503h-1.418c-1.562,0-2.833,1.271-2.833,2.833V1.586     c0,3.832,3.118,6.95,6.95,6.95h6.744c3.832,0,6.95-3.118,6.95-6.95v-11.901c0-1.563-1.271-2.833-2.833-2.833H6.072v-12.503     c0-1.562-1.271-2.832-2.833-2.832H-3.238z"></path><path d="M3.372,7.536c3.281,0,5.95-2.669,5.95-5.95v-11.902c0-1.01-0.822-1.833-1.832-1.833H7.072h-2v-2v-11.503     c0-1.01-0.822-1.833-1.833-1.833h-6.478c-1.01,0-1.832,0.822-1.832,1.833v11.503v2h-2h-0.418c-1.01,0-1.832,0.822-1.832,1.833     V1.586c0,3.281,2.669,5.95,5.95,5.95H3.372 M3.372,9.536h-6.744c-4.372,0-7.95-3.577-7.95-7.95v-11.902     c0-2.108,1.725-3.833,3.832-3.833h0.418v-11.503c0-2.108,1.725-3.833,3.832-3.833h6.478c2.108,0,3.833,1.725,3.833,3.833v11.503     H7.49c2.108,0,3.832,1.725,3.832,3.833V1.586C11.322,5.959,7.745,9.536,3.372,9.536L3.372,9.536z"></path></g><g><path d="M-0.75,15.209c-2.822,0-5.118,2.296-5.118,5.118v3.038c0,2.821,2.296,5.117,5.118,5.117h1.5     c2.822,0,5.118-2.296,5.118-5.117v-3.038c0-2.822-2.296-5.118-5.118-5.118H-0.75z"></path><path d="M0.75,27.483c2.271,0,4.118-1.847,4.118-4.118v-3.038c0-2.271-1.847-4.118-4.118-4.118h-1.5     c-2.271,0-4.118,1.847-4.118,4.118v3.038c0,2.271,1.847,4.118,4.118,4.118H0.75 M0.75,29.483h-1.5     c-3.365,0-6.118-2.753-6.118-6.118v-3.038c0-3.365,2.753-6.118,6.118-6.118h1.5c3.365,0,6.118,2.753,6.118,6.118v3.038     C6.868,26.73,4.115,29.483,0.75,29.483L0.75,29.483z"></path></g></g></symbol><symbol viewBox="-13.754 -32.379 27.509 60.818"><g><path style="" d="M6.112,10.396H-6.112    c-2.003,0-3.643-1.639-3.643-3.643V-8.431c0-1.816,1.486-3.302,3.302-3.302h0.36v-13.344c0-1.816,1.486-3.302,3.302-3.302H2.79    c1.816,0,3.302,1.486,3.302,3.302v13.344h0.36c1.816,0,3.302,1.486,3.302,3.302V6.753C9.755,8.757,8.115,10.396,6.112,10.396z" fill="#FFFFFF" stroke="#F1F2F2" stroke-width="8" stroke-miterlimit="3"></path><g><path style="" d="M-0.646,19.28c-0.689,0-1.271,0.582-1.271,1.271v2.617c0,0.689,0.582,1.271,1.271,1.271h1.292     c0.689,0,1.271-0.582,1.271-1.271v-2.617c0-0.689-0.582-1.271-1.271-1.271H-0.646z" fill="#FFFFFF"></path><path style="" d="M0.646,28.439h-1.292c-2.899,0-5.271-2.372-5.271-5.271v-2.617c0-2.899,2.372-5.271,5.271-5.271     h1.292c2.899,0,5.271,2.372,5.271,5.271v2.617C5.917,26.068,3.545,28.439,0.646,28.439L0.646,28.439z" fill="#F1F2F2"></path></g></g><g><path style="" d="M6.112,10.396H-6.112c-2.003,0-3.643-1.639-3.643-3.643V-8.431    c0-1.816,1.486-3.302,3.302-3.302h0.36v-13.344c0-1.816,1.486-3.302,3.302-3.302H2.79c1.816,0,3.302,1.486,3.302,3.302v13.344    h0.36c1.816,0,3.302,1.486,3.302,3.302V6.753C9.755,8.757,8.115,10.396,6.112,10.396z" stroke="#FFFFFF" stroke-miterlimit="10"></path><g><path d="M-0.646,15.78c-2.631,0-4.771,2.14-4.771,4.771v2.617c0,2.631,2.14,4.771,4.771,4.771h1.292     c2.631,0,4.771-2.14,4.771-4.771v-2.617c0-2.631-2.14-4.771-4.771-4.771H-0.646z"></path><path style="" d="M0.646,27.439c2.355,0,4.271-1.916,4.271-4.271v-2.617c0-2.355-1.916-4.271-4.271-4.271h-1.292     c-2.355,0-4.271,1.916-4.271,4.271v2.617c0,2.355,1.916,4.271,4.271,4.271H0.646 M0.646,28.439h-1.292     c-2.899,0-5.271-2.372-5.271-5.271v-2.617c0-2.899,2.372-5.271,5.271-5.271h1.292c2.899,0,5.271,2.372,5.271,5.271v2.617     C5.917,26.068,3.545,28.439,0.646,28.439L0.646,28.439z" fill="#FFFFFF"></path></g></g></symbol><symbol viewBox="-14.822 -32.984 29.644 65.967"><g><path style="" d="M3.372,9.536h-6.744    c-4.372,0-7.95-3.577-7.95-7.95v-11.902c0-2.108,1.725-3.832,3.832-3.832h0.418v-11.503c0-2.108,1.725-3.832,3.832-3.832h6.478    c2.108,0,3.832,1.725,3.832,3.832v11.503h0.418c2.108,0,3.832,1.725,3.832,3.832V1.586C11.322,5.959,7.745,9.536,3.372,9.536z" fill="#FFFFFF" stroke="#F2F2F2" stroke-width="7" stroke-miterlimit="3"></path><path style="" d="M0.75,14.209h-1.5    c-3.365,0-6.118,2.753-6.118,6.118v3.038c0,3.365,2.753,6.118,6.118,6.118h1.5c3.365,0,6.118-2.753,6.118-6.118v-3.038    C6.868,16.962,4.115,14.209,0.75,14.209z" fill="#FFFFFF" stroke="#F2F2F2" stroke-width="7" stroke-miterlimit="3"></path></g><g><g><path style="" d="M-3.238-27.483c-1.011,0-1.833,0.822-1.833,1.832v13.503h-2.418c-1.01,0-1.832,0.822-1.832,1.833     V1.586c0,3.281,2.669,5.95,5.949,5.95h6.744c3.281,0,5.95-2.669,5.95-5.95v-11.901c0-1.011-0.822-1.833-1.833-1.833H5.071     v-13.503c0-1.01-0.822-1.832-1.832-1.832H-3.238z" fill="#FFFFFF"></path><path d="M3.372,5.536c2.178,0,3.95-1.772,3.95-3.95v-11.734h-0.25h-4v-4v-11.336h-6.143v11.336v4h-4h-0.251V1.586     c0,2.178,1.772,3.95,3.95,3.95H3.372 M3.372,9.536h-6.744c-4.372,0-7.95-3.577-7.95-7.95v-11.902     c0-2.108,1.725-3.832,3.833-3.832h0.418v-11.503c0-2.108,1.725-3.832,3.833-3.832h6.478c2.108,0,3.833,1.725,3.833,3.832v11.503     H7.49c2.108,0,3.832,1.725,3.832,3.832V1.586C11.322,5.959,7.745,9.536,3.372,9.536L3.372,9.536z"></path></g><g><path style="" d="M-0.75,16.209c-2.271,0-4.117,1.848-4.117,4.118v3.038c0,2.271,1.847,4.118,4.117,4.118h1.5     c2.271,0,4.118-1.848,4.118-4.118v-3.038c0-2.271-1.848-4.118-4.118-4.118H-0.75z" fill="#FFFFFF"></path><path d="M0.75,25.483c1.148,0,2.118-0.97,2.118-2.118v-3.038c0-1.148-0.97-2.118-2.118-2.118h-1.5     c-1.148,0-2.118,0.97-2.118,2.118v3.038c0,1.148,0.97,2.118,2.118,2.118H0.75 M0.75,29.483h-1.5     c-3.365,0-6.118-2.753-6.118-6.118v-3.038c0-3.365,2.753-6.118,6.118-6.118h1.5c3.365,0,6.118,2.753,6.118,6.118v3.038     C6.868,26.73,4.115,29.483,0.75,29.483L0.75,29.483z"></path></g></g></symbol><symbol viewBox="-14.321 -32.483 28.644 64.967"><g><path style="" d="M3.373,9.536h-6.744    c-4.372,0-7.95-3.577-7.95-7.95v-11.902c0-2.108,1.725-3.832,3.832-3.832h0.418v-11.503c0-2.108,1.725-3.832,3.832-3.832h6.478    c2.108,0,3.832,1.725,3.832,3.832v11.503H7.49c2.108,0,3.832,1.725,3.832,3.832V1.586C11.323,5.959,7.745,9.536,3.373,9.536z" fill="#FFFFFF" stroke="#F2F2F2" stroke-width="6" stroke-miterlimit="3"></path><path style="" d="M0.75,14.209h-1.5    c-3.365,0-6.118,2.753-6.118,6.118v3.038c0,3.365,2.753,6.118,6.118,6.118h1.5c3.365,0,6.118-2.753,6.118-6.118v-3.038    C6.868,16.962,4.115,14.209,0.75,14.209z" fill="#FFFFFF" stroke="#F2F2F2" stroke-width="6" stroke-miterlimit="3"></path></g><g><g><path d="M-3.238-27.483c-1.01,0-1.832,0.822-1.832,1.832v13.504h-2.418c-1.011,0-1.833,0.822-1.833,1.832V1.587     c0,3.28,2.669,5.949,5.95,5.949h6.744c3.28,0,5.949-2.669,5.949-5.949v-11.902c0-1.01-0.822-1.832-1.832-1.832H5.072v-13.504     c0-1.01-0.822-1.832-1.833-1.832H-3.238z"></path><path d="M3.373,5.536c2.178,0,3.95-1.772,3.95-3.95v-11.734H7.072h-4v-4v-11.336h-6.143v11.336v4h-4h-0.25V1.586     c0,2.178,1.772,3.95,3.95,3.95H3.373 M3.373,9.536h-6.744c-4.372,0-7.95-3.577-7.95-7.95v-11.902     c0-2.108,1.725-3.832,3.833-3.832h0.418v-11.503c0-2.108,1.725-3.833,3.833-3.833H3.24c2.108,0,3.832,1.725,3.832,3.833v11.503     H7.49c2.108,0,3.833,1.725,3.833,3.832V1.586C11.323,5.959,7.745,9.536,3.373,9.536L3.373,9.536z"></path></g><g><path d="M-0.674,16.974c-1.934,0-3.507,1.572-3.507,3.506v2.734c0,1.934,1.573,3.506,3.507,3.506h1.35     c1.934,0,3.506-1.572,3.506-3.506v-2.734c0-1.934-1.572-3.506-3.506-3.506H-0.674z"></path><path d="M0.676,24.719c0.816,0,1.506-0.69,1.506-1.506v-2.734c0-0.816-0.69-1.506-1.506-1.506h-1.35     c-0.816,0-1.506,0.69-1.506,1.506v2.734c0,0.816,0.69,1.506,1.506,1.506H0.676 M0.676,28.719h-1.35     c-3.028,0-5.506-2.478-5.506-5.506v-2.734c0-3.028,2.478-5.506,5.506-5.506h1.35c3.028,0,5.506,2.478,5.506,5.506v2.734     C6.182,26.242,3.704,28.719,0.676,28.719L0.676,28.719z"></path></g></g></symbol><symbol viewBox="-13.754 -32.378 27.509 60.818"><g><path style="" d="M6.112,10.396H-6.112    c-2.003,0-3.643-1.639-3.643-3.643V-8.43c0-1.816,1.486-3.302,3.302-3.302h0.36v-13.344c0-1.816,1.486-3.302,3.302-3.302h5.581    c1.816,0,3.302,1.486,3.302,3.302v13.344h0.36c1.816,0,3.302,1.486,3.302,3.302V6.754C9.755,8.757,8.116,10.396,6.112,10.396z" fill="#FFFFFF" stroke="#F1F2F2" stroke-width="8" stroke-miterlimit="3"></path><g><path style="" d="M-0.646,19.281c-0.689,0-1.271,0.582-1.271,1.271v2.618c0,0.688,0.582,1.271,1.271,1.271h1.292     c0.688,0,1.271-0.582,1.271-1.271v-2.618c0-0.689-0.582-1.271-1.271-1.271H-0.646z" fill="#FFFFFF"></path><path style="" d="M0.646,28.44h-1.292c-2.899,0-5.271-2.372-5.271-5.271v-2.617c0-2.899,2.372-5.271,5.271-5.271     h1.292c2.899,0,5.271,2.372,5.271,5.271v2.617C5.917,26.068,3.545,28.44,0.646,28.44L0.646,28.44z" fill="#F1F2F2"></path></g></g><g><path style="" d="M6.112,10.396H-6.112    c-2.003,0-3.643-1.639-3.643-3.643V-8.43c0-1.816,1.486-3.302,3.302-3.302h0.36v-13.344c0-1.816,1.486-3.302,3.302-3.302h5.581    c1.816,0,3.302,1.486,3.302,3.302v13.344h0.36c1.816,0,3.302,1.486,3.302,3.302V6.754C9.755,8.757,8.116,10.396,6.112,10.396z" fill="#FFFFFF" stroke="#000000" stroke-width="2" stroke-miterlimit="3"></path><g><path style="" d="M-0.646,16.281c-2.355,0-4.271,1.916-4.271,4.271v2.618c0,2.355,1.916,4.271,4.271,4.271h1.292     c2.354,0,4.271-1.916,4.271-4.271v-2.618c0-2.355-1.916-4.271-4.271-4.271H-0.646z" fill="#FFFFFF"></path><path d="M0.646,26.44c1.804,0,3.271-1.467,3.271-3.271v-2.617c0-1.804-1.467-3.271-3.271-3.271h-1.292     c-1.804,0-3.271,1.467-3.271,3.271v2.617c0,1.804,1.467,3.271,3.271,3.271H0.646 M0.646,28.44h-1.292     c-2.899,0-5.271-2.372-5.271-5.271v-2.617c0-2.899,2.372-5.271,5.271-5.271h1.292c2.899,0,5.271,2.372,5.271,5.271v2.617     C5.917,26.068,3.545,28.44,0.646,28.44L0.646,28.44z"></path></g></g></symbol><g style="" display="none"><rect x="-1009" y="-979" style="" width="1430" height="1298" display="inline" fill="#66CC99"></rect></g><g><g><path d="M93.625,45.957c-0.212-0.212-0.444-0.404-0.693-0.573c-0.699-0.473-1.534-0.748-2.429-0.783    c-0.062-0.002-0.12-0.019-0.183-0.019h-0.711c0.415,0.73,0.725,1.527,0.9,2.374c0.112,0.541,0.172,1.101,0.172,1.675v7.538v0.289    c0,0.845-0.199,1.641-0.539,2.357c-0.487,1.027-1.274,1.886-2.257,2.447v3.935v1.348c0,0.344-0.036,0.68-0.096,1.006h2.452h0    c0.465,0,0.899-0.143,1.259-0.387c0.12-0.081,0.232-0.174,0.334-0.276c0.409-0.409,0.663-0.973,0.663-1.593v-6.771h0h0.246    c1.241,0,2.256-1.015,2.256-2.256v-7.006c0-0.643-0.132-1.258-0.369-1.817C94.393,46.885,94.049,46.381,93.625,45.957z"></path><path d="M88.733,41.381c1.783,0,3.241-1.459,3.241-3.241v-1.609c0-1.783-1.458-3.241-3.241-3.241h-0.795    c-0.09,0-0.175,0.019-0.264,0.027c0.046,0.325,0.078,0.654,0.078,0.991v1.376v0.623c0,0.86-0.163,1.682-0.447,2.444    c-0.282,0.756-0.684,1.453-1.194,2.061c0.521,0.358,1.15,0.57,1.827,0.57H88.733z"></path><path d="M87.624,56.965c0.034-0.164,0.051-0.333,0.051-0.506v-7.828v0c0-1.078-0.331-2.083-0.896-2.918    c-0.942-1.391-2.535-2.31-4.332-2.31h-1.593c0.569,0.79,1.012,1.675,1.294,2.631c0.234,0.79,0.364,1.623,0.364,2.487v7.828v0.829    c0,0.594-0.096,1.165-0.263,1.705c-0.457,1.477-1.484,2.707-2.829,3.419v4.132v1.898c0,0.249-0.021,0.492-0.051,0.732h2.991    c0.347,0,0.677-0.071,0.979-0.199c0.301-0.128,0.573-0.313,0.802-0.542c0.114-0.114,0.217-0.239,0.308-0.373    c0.272-0.403,0.432-0.887,0.432-1.407v-7.565h0h0.275C86.368,58.979,87.388,58.111,87.624,56.965z"></path><path d="M79.272,33.585v1.303c0,0.66-0.095,1.296-0.256,1.906c-0.238,0.897-0.637,1.726-1.167,2.457    c0.562,0.359,1.224,0.575,1.937,0.575h0.888c1.992,0,3.621-1.63,3.621-3.621v-1.798c0-1.992-1.63-3.621-3.621-3.621h-0.888    c-0.256,0-0.504,0.029-0.745,0.08c0.146,0.581,0.232,1.187,0.232,1.813V33.585z"></path><path d="M79.506,57.177V48.52c0-0.795-0.163-1.554-0.456-2.245c-0.881-2.074-2.941-3.537-5.326-3.537h-1.711    c0.669,0.864,1.197,1.843,1.53,2.91c0.274,0.875,0.422,1.806,0.422,2.771v8.638v0.789c0,0.809-0.17,1.576-0.46,2.282    c-0.559,1.363-1.593,2.483-2.906,3.134v4.95v1.781c0,0.386-0.04,0.763-0.11,1.129h3.138c0.767,0,1.464-0.314,1.969-0.819    c0.505-0.505,0.819-1.202,0.819-1.969v-8.367h0.304c0.767,0,1.464-0.314,1.969-0.819C79.193,58.641,79.506,57.944,79.506,57.177z"></path><path d="M70.437,31.764v1.809c0,0.718-0.105,1.41-0.286,2.071c-0.264,0.962-0.705,1.848-1.288,2.625    c0.573,0.317,1.22,0.513,1.917,0.513h0.982c2.203,0,4.005-1.802,4.005-4.005v-1.989c0-2.203-1.802-4.005-4.005-4.005H70.78    c-0.237,0-0.466,0.03-0.692,0.07c0.226,0.732,0.349,1.508,0.349,2.313V31.764z"></path><path d="M70.067,59.988c0.413-0.413,0.708-0.943,0.83-1.534c0.041-0.197,0.062-0.401,0.062-0.61v-9.427    c0-0.433-0.044-0.856-0.128-1.265c-0.084-0.409-0.208-0.804-0.368-1.18c-0.48-1.129-1.28-2.092-2.286-2.773    c-1.005-0.681-2.216-1.079-3.514-1.079h-4.366c0.762,0.929,1.353,2.001,1.735,3.168c0.312,0.956,0.486,1.973,0.486,3.032v10.154    c0,2.242-1.185,4.207-2.958,5.317c-0.216,0.135-0.436,0.263-0.668,0.372v7.395c0,0.475-0.057,0.935-0.158,1.38    c0.224,0.053,0.454,0.088,0.693,0.088h5.131h0c1.669,0,3.035-1.366,3.035-3.036V60.88h0h0.331c0.626,0,1.21-0.192,1.694-0.52    C69.779,60.25,69.93,60.126,70.067,59.988z"></path><path d="M58.716,32.332c0,1.291-0.307,2.508-0.839,3.597c0.789,1.136,2.1,1.886,3.58,1.886h1.069c2.399,0,4.361-1.963,4.361-4.361    v-2.166c0-2.399-1.962-4.361-4.361-4.361h-1.069c-1.121,0-2.137,0.44-2.912,1.142c0.112,0.54,0.171,1.099,0.171,1.671V32.332z"></path><path d="M12.114,65.196v-3.935c-0.983-0.561-1.77-1.42-2.257-2.447c-0.34-0.716-0.539-1.512-0.539-2.357v-0.289v-7.538    c0-0.574,0.06-1.134,0.172-1.676c0.176-0.847,0.486-1.644,0.9-2.374H9.68c-0.063,0-0.121,0.016-0.184,0.019    c-1.213,0.048-2.315,0.549-3.121,1.356c-0.212,0.212-0.404,0.444-0.573,0.693C5.296,47.397,5,48.296,5,49.261v0v7.006    c0,0.31,0.063,0.606,0.178,0.876c0.115,0.27,0.28,0.513,0.485,0.717c0.409,0.409,0.973,0.663,1.593,0.663h0.246v6.771    c0,0.465,0.143,0.899,0.387,1.259c0.407,0.6,1.094,0.997,1.869,0.997h2.452c-0.061-0.327-0.096-0.663-0.096-1.007V65.196z"></path><path d="M11.267,41.381h0.795c0.677,0,1.306-0.212,1.827-0.57c-0.509-0.608-0.912-1.305-1.194-2.062    c-0.284-0.763-0.447-1.584-0.447-2.445v-0.622v-1.375c0-0.337,0.032-0.666,0.078-0.991c-0.089-0.007-0.174-0.027-0.264-0.027    h-0.795c-1.783,0-3.241,1.459-3.241,3.241v1.609C8.026,39.923,9.485,41.381,11.267,41.381z"></path><path d="M20.579,66.434v-4.133c-1.345-0.712-2.372-1.942-2.829-3.419c-0.167-0.54-0.263-1.111-0.263-1.704v-0.829v-7.829    c0-0.864,0.13-1.697,0.364-2.487c0.283-0.956,0.725-1.84,1.294-2.631h-1.593c-1.438,0-2.745,0.588-3.693,1.536    c-0.948,0.948-1.536,2.255-1.536,3.693v7.828c0,1.386,1.134,2.521,2.521,2.521h0.275v7.565c0,0.347,0.071,0.677,0.199,0.979    c0.128,0.301,0.313,0.573,0.542,0.801c0.343,0.342,0.783,0.588,1.274,0.689c0.164,0.034,0.333,0.051,0.506,0.051h0h2.99    c-0.031-0.24-0.051-0.484-0.051-0.732V66.434z"></path><path d="M19.327,39.826h0.888c0.713,0,1.375-0.215,1.937-0.575c-0.53-0.731-0.929-1.561-1.167-2.457    c-0.162-0.61-0.256-1.247-0.256-1.907v-1.302v-0.907c0-0.626,0.086-1.231,0.232-1.813c-0.241-0.051-0.49-0.08-0.746-0.08h-0.888    c-1.992,0-3.621,1.63-3.621,3.621v1.798C15.705,38.197,17.335,39.826,19.327,39.826z"></path><path d="M29.401,68.21v-4.949c-1.313-0.651-2.347-1.772-2.906-3.135c-0.29-0.706-0.46-1.473-0.46-2.282v-0.788v-8.638    c0-0.965,0.148-1.895,0.422-2.771c0.333-1.067,0.861-2.045,1.531-2.91h-1.711c-1.789,0-3.395,0.823-4.458,2.11    c-0.472,0.572-0.837,1.235-1.064,1.958c-0.057,0.181-0.104,0.365-0.143,0.553c-0.077,0.376-0.118,0.764-0.118,1.162v0v8.657    c0,1.533,1.254,2.788,2.788,2.788h0.304h0v8.367c0,0.958,0.49,1.808,1.232,2.31c0.297,0.201,0.634,0.346,0.996,0.421    c0.181,0.037,0.368,0.057,0.56,0.057h0h3.138c-0.07-0.366-0.11-0.743-0.11-1.129V68.21z"></path><path d="M28.238,38.782h0.982c0.697,0,1.345-0.197,1.917-0.513c-0.583-0.777-1.024-1.664-1.288-2.625    c-0.181-0.661-0.286-1.353-0.286-2.071v-1.809v-0.597c0-0.805,0.123-1.582,0.349-2.313c-0.226-0.04-0.455-0.07-0.692-0.07h-0.982    c-2.203,0-4.005,1.802-4.005,4.005v1.989C24.233,36.98,26.035,38.782,28.238,38.782z"></path><path d="M40.812,64.164c-0.129-0.06-0.247-0.138-0.371-0.206c-1.935-1.07-3.256-3.119-3.256-5.483V48.321    c0-1.059,0.174-2.076,0.486-3.032c0.381-1.167,0.972-2.239,1.734-3.168h-4.069c-0.433,0-0.856,0.044-1.265,0.128    c-0.409,0.084-0.804,0.208-1.18,0.368c-2.258,0.959-3.852,3.203-3.852,5.8v9.427c0,1.67,1.366,3.036,3.036,3.036h0.331v9.111    c0,1.67,1.366,3.036,3.036,3.036h5.131c0.14,0,0.273-0.023,0.408-0.041c-0.107-0.459-0.17-0.935-0.17-1.426V64.164z"></path><path d="M37.474,37.814h1.069c1.374,0,2.591-0.657,3.392-1.658c-0.604-1.144-0.949-2.444-0.949-3.824v-2.592    c0-0.646,0.082-1.271,0.224-1.874c-0.74-0.579-1.659-0.939-2.666-0.939h-1.069c-2.399,0-4.361,1.963-4.361,4.361v2.166    C33.113,35.852,35.076,37.814,37.474,37.814z"></path><path d="M59.511,58.475V48.321c0-2.098-0.966-3.982-2.475-5.229c-1.174-0.97-2.676-1.554-4.308-1.554h-5.754    c-1.632,0-3.134,0.584-4.308,1.554c-0.335,0.277-0.644,0.586-0.921,0.921c-0.97,1.174-1.554,2.676-1.554,4.308v10.154    c0,1.798,1.471,3.27,3.27,3.27h0.357v9.814c0,0.674,0.207,1.303,0.56,1.825c0.471,0.696,1.203,1.203,2.053,1.378    c0.212,0.044,0.432,0.067,0.657,0.067h0h5.527c1.124,0,2.12-0.575,2.709-1.445c0.353-0.522,0.56-1.151,0.56-1.825v-9.814h0.357    c0.45,0,0.879-0.092,1.27-0.258C58.683,60.989,59.511,59.824,59.511,58.475z"></path><path d="M49.275,36.899h1.152c2.584,0,4.698-2.114,4.698-4.698v-2.333c0-2.584-2.114-4.698-4.698-4.698h-1.152    c-2.584,0-4.698,2.114-4.698,4.698v2.333C44.578,34.785,46.692,36.899,49.275,36.899z"></path></g></g></svg>