<?xml version="1.0" encoding="UTF-8" standalone="no"?>
<svg width="45px" height="89px" viewBox="0 0 45 89" version="1.1" xmlns="http://www.w3.org/2000/svg" xmlns:xlink="http://www.w3.org/1999/xlink">
    <!-- Generator: Sketch 3.8.1 (29687) - http://www.bohemiancoding.com/sketch -->
    <title>Analog phone</title>
    <desc>Created with Sketch.</desc>
    <defs></defs>
    <g id="Page-1" stroke="none" stroke-width="1" fill="none" fill-rule="evenodd">
        <path d="M40.75,18.656406 L40.75,1.824406 C40.75,1.132996 40.19141,0.574406 39.5,0.574406 C38.80859,0.574406 38.25,1.132996 38.25,1.824406 L38.25,16.957406 C36.7422,16.203496 35.0469,15.769906 33.25,15.769906 L11.25,15.765996 C5.0469,15.765996 0,20.812896 0,27.015996 L0,77.749996 C0,83.953096 5.0469,89 11.25,89 L33.25,89 C39.4531,89 44.5,83.953096 44.5,77.749996 L44.5,27.019996 C44.5,23.695796 43.0469,20.719196 40.75,18.656696 L40.75,18.656406 Z M42,77.754406 C42,82.578606 38.0742,86.504406 33.25,86.504406 L11.25,86.504406 C6.4258,86.504406 2.5,82.578606 2.5,77.754406 L2.5,27.020406 C2.5,22.196206 6.4258,18.270406 11.25,18.270406 L33.25,18.270406 C38.0742,18.270406 42,22.196206 42,27.020406 L42,77.754406 Z M35.5,26.324406 L9,26.324406 C8.30859,26.324406 7.75,26.882996 7.75,27.574406 L7.75,47.824406 C7.75,48.515816 8.30859,49.074406 9,49.074406 L35.5,49.074406 C36.19141,49.074406 36.75,48.515816 36.75,47.824406 L36.75,27.574406 C36.75,26.882996 36.19141,26.324406 35.5,26.324406 L35.5,26.324406 Z M34.25,46.574406 L10.25,46.574406 L10.25,28.824406 L34.25,28.824406 L34.25,46.574406 Z" id="Analog-phone" fill="#575757"></path>
    </g>
</svg>