<?xml version="1.0" encoding="UTF-8" standalone="no"?>
<svg width="55px" height="60px" viewBox="0 0 55 60" version="1.1" xmlns="http://www.w3.org/2000/svg" xmlns:xlink="http://www.w3.org/1999/xlink">
    <!-- Generator: Sketch 3.8.1 (29687) - http://www.bohemiancoding.com/sketch -->
    <title>ideas</title>
    <desc>Created with Sketch.</desc>
    <defs></defs>
    <g id="Page-1" stroke="none" stroke-width="1" fill="none" fill-rule="evenodd">
        <g id="ideas" fill="#575757">
            <path d="M9.00427993,11.9332469 C13.0121046,7.83519508 18.2940025,5.19403892 23.9414859,4.46345976 C24.3970796,5.92041459 25.6713719,7.10449751 27.3110307,7.10449751 C29.2236206,7.10449751 30.8632795,5.5550066 30.8632795,3.55224875 C30.8632795,1.54949091 29.3137885,0 27.3110307,0 C25.4886679,0 24.0316539,1.36678691 23.8489499,3.09667285 C17.838545,3.82517987 12.1910615,6.64892161 8,10.9293814 L9.00427993,11.9332469 Z M27.3113859,1.36649089 C28.4954688,1.36649089 29.4968478,2.36786982 29.4968478,3.55195273 C29.4968478,4.73603565 28.4954688,5.73741457 27.3113859,5.73741457 C26.127303,5.73741457 25.1259241,4.73603565 25.1259241,3.55195273 C25.1259241,2.2777019 26.127303,1.36649089 27.3113859,1.36649089 L27.3113859,1.36649089 Z" id="Fill-1"></path>
            <path d="M1.09387948,37.3196304 L2.36813031,36.9542283 C1.6396233,34.5860625 1.36675139,32.2178967 1.36675139,29.7597405 C1.36675139,26.3901958 2.00503129,23.0205326 3.27934132,19.9217876 C3.55223691,20.0119792 3.91762122,20.0119792 4.19055233,20.0119792 C5.46480316,20.0119792 6.64888608,19.3736993 7.28722518,18.2820933 C8.28860411,16.5522073 7.65262725,14.4569726 6.01297435,13.4555937 C5.46718317,13.1826981 4.82889143,13 4.19061154,13 C2.9163607,13 1.73227779,13.6382799 1.09393869,14.7298859 C0.728536617,15.4607019 0.545838544,16.4620808 0.821043095,17.3732326 C1.00143221,18.1017397 1.45701403,18.7400196 2.09529393,19.1955955 C0.728507015,22.4749723 0,26.0271619 0,29.6694009 C0,32.2202707 0.365402068,34.8613085 1.093915,37.3197606 L1.09387948,37.3196304 Z M2.36813031,15.3702853 C2.73353238,14.7320054 3.46204532,14.2763703 4.28072025,14.2763703 C4.64612231,14.2763703 5.00922726,14.3665619 5.37463525,14.5492659 C6.37601417,15.1875458 6.74142216,16.4618559 6.19331018,17.5557117 C5.55733924,18.5570906 4.19055233,18.9224986 3.18917341,18.2842187 C2.64338223,18.0113231 2.37049848,17.5557117 2.18779449,16.9174318 C2.00509641,16.4618381 2.09528801,15.8258257 2.3681836,15.3702498 L2.36813031,15.3702853 Z" id="Fill-2"></path>
            <path d="M6.99491853,45.0128915 C7.4505122,44.5572978 7.72342555,44.1016805 7.90612954,43.4634006 C8.17902513,42.5521895 7.99632114,41.6410377 7.54072748,40.8223628 C6.90244758,39.7284478 5.71836466,39 4.44405462,39 C3.80577473,39 3.25997111,39.1826981 2.71416809,39.4555937 C1.07450927,40.3691136 0.528706252,42.5545755 1.4376083,44.2844022 C2.0758882,45.3783172 3.25997111,46.106765 4.53428174,46.106765 C4.98987541,46.106765 5.44549275,46.0165734 5.90106866,45.8338694 C9.45331741,50.4800332 14.3725899,53.9395096 20.0200734,55.4894742 L20.3854754,54.2152234 C15.1010318,52.6657319 10.3645817,49.3864142 6.99527376,45.0131224 L6.99491853,45.0128915 Z M2.6216853,43.5559366 C2.07589412,42.5545577 2.43898722,41.1877708 3.44036023,40.5494909 C3.80576289,40.3667928 4.16886783,40.2765953 4.53427582,40.2765953 C5.35295075,40.2765953 6.08376673,40.732189 6.44686576,41.3705103 C6.71976135,41.9163015 6.81226782,42.4644253 6.62956383,43.0101691 C6.44685984,43.555913 6.08377265,44.0115481 5.62818491,44.28442 C4.62680598,45.012927 3.26001848,44.5573156 2.62173858,43.555913 L2.6216853,43.5559366 Z" id="Fill-3"></path>
            <path d="M44.7691868,48 C40.7613622,52.0078247 35.5694546,54.5586347 30.0143296,55.2874377 C29.8316315,54.7416465 29.5587359,54.1935227 29.1031186,53.7379468 C28.4648387,53.0996675 27.5536277,52.6440324 26.5522488,52.6440324 C24.6396588,52.6440324 23,54.1935227 23,56.1061127 C23,58.0187026 24.5494909,59.6583613 26.4620808,59.6583613 C28.2844437,59.6583613 29.7414577,58.2915745 29.9241617,56.5616886 C35.8445763,55.8331815 41.3091189,53.0996083 45.5901707,48.818971 L44.7691868,48 Z M26.6426535,58.4738049 L26.6426535,59.1120845 L26.6426535,58.4738049 C25.4585706,58.4738049 24.4571916,57.4724253 24.4571916,56.2883424 C24.4571916,55.1042595 25.4585706,54.1028806 26.6426535,54.1028806 C27.1884447,54.1028806 27.7365685,54.3757762 28.1921444,54.7411605 C28.5575465,55.1967541 28.8304243,55.7425394 28.8304243,56.2906514 C28.8281094,57.4724253 27.8267364,58.4738043 26.6426535,58.4738043 L26.6426535,58.4738049 Z" id="Fill-4"></path>
            <path d="M47.3014068,13.8393259 C46.2074918,14.9332409 45.8444519,16.6630677 46.6631269,18.1200817 C47.3014068,19.2139967 48.4854897,19.9424445 49.7597997,19.9424445 C50.3980796,19.9424445 50.9438826,19.7597464 51.4896857,19.4868508 C53.2195716,18.5756398 53.8578515,16.390178 52.8564726,14.6603513 C52.2181927,13.5664363 51.0341098,12.8379884 49.7597997,12.8379884 C49.3042061,12.8379884 48.8485887,12.92818 48.4855489,13.110884 C44.7505961,8.10168046 39.3781751,4.45701403 33.3654021,3 L33,4.36678691 C38.7377106,5.73357382 43.8396871,9.10311858 47.3013535,13.8394503 L47.3014068,13.8393259 Z M51.6723305,15.2985897 C52.2181216,16.2999686 51.8550285,17.6667556 50.8536555,18.2125586 C49.8522766,18.7583498 48.4854897,18.3952566 47.9396867,17.3938836 C47.3939014,16.3925047 47.7569886,15.0257178 48.7583616,14.4799148 C49.1237637,14.2972167 49.4868686,14.2070192 49.8522766,14.2070192 C50.5784747,14.2047043 51.3069225,14.660298 51.6723305,15.2986252 L51.6723305,15.2985897 Z" id="Fill-5"></path>
            <path d="M51.8796467,40.4883127 C53.3366015,37.1187679 54.0651085,33.566756 54.0651085,29.8315664 C54.0651085,27.5535685 53.792213,25.1854026 53.1538975,23 L51.7871106,23.3654021 C52.3329018,25.460696 52.6057856,27.6461578 52.6057856,29.8316789 C52.6057856,33.2937597 51.8772785,36.6632453 50.5104916,39.8502045 C50.237596,39.7600129 49.8722117,39.7600129 49.5091127,39.7600129 C48.2348619,39.7600129 47.1409469,40.3982928 46.502667,41.4898988 C45.501288,43.1295576 46.0470733,45.3150195 47.6867499,46.3163984 C48.2325411,46.6818004 48.8708328,46.771992 49.5091127,46.771992 C50.7833635,46.771992 51.8772785,46.1337121 52.5155584,45.0421061 C52.9711521,44.2234312 53.1538383,43.3122202 52.8809605,42.4010684 C52.9711521,41.6725613 52.5155584,41.0342814 51.8795816,40.4884784 L51.8796467,40.4883127 Z M51.5142446,44.4059694 C50.9684535,45.4073483 49.5114868,45.7727563 48.5077989,45.1344764 C47.50642,44.4961965 47.141012,43.2218865 47.7792919,42.1280307 C48.144694,41.4897508 48.8732069,41.0341157 49.6918818,41.0341157 C50.0572839,41.0341157 50.4203888,41.1243073 50.7857968,41.3070113 C51.2413905,41.5799069 51.6044718,42.0355183 51.7871757,42.6737982 C51.9698797,43.3120781 51.8796822,43.8578811 51.5142802,44.4059931 L51.5142446,44.4059694 Z" id="Fill-6"></path>
            <path d="M30.026072,47.9098002 C31.2101549,47.9098002 32.1213659,47.0911252 32.3942378,45.9070423 C32.3942378,45.6341467 32.4844294,45.3612512 32.4844294,44.9056634 L33.7586802,44.9056634 L33.7586802,43.5388765 L32.5745973,43.5388765 C32.5745973,43.4486849 32.7572954,42.7202016 32.7572954,42.3547936 L34.9427572,42.3547936 L34.9427572,40.9880067 L33.1227034,40.9880067 C33.8512104,37.8011659 35.0352933,34.794661 36.5847842,32.153564 C36.6749758,31.9708659 36.7674823,31.8806684 36.8576798,31.6979703 C37.9515948,29.8756075 38.4071707,27.7803136 38.3146346,25.5946149 C38.041739,19.9470723 33.578303,15.3937406 27.9308195,15.027859 C21.3721842,14.5722653 16,19.7641907 16,26.2304675 C16,27.5047183 16.1826981,28.6888012 16.6382799,29.9654202 L17.6396588,31.8780102 C17.8223569,32.1509057 17.9125544,32.3336038 18.0952525,32.6065172 L18.1854441,32.6967088 C19.6423989,35.2475786 20.6437778,38.0713203 21.3722848,40.9852892 L19.369527,40.9852892 L19.369527,42.3543851 L21.6475249,42.3543851 C21.7377165,42.6272807 21.7377165,43.0828921 21.830223,43.538468 L20.6461401,43.538468 L20.6461401,44.9052549 L22.012927,44.9052549 L22.012927,45.3608486 L22.1031186,46.0893556 L22.1031186,46.2720537 C22.4685207,47.1832647 23.3773694,47.8215446 24.3811165,47.8215446 L30.0263502,47.8192356 L30.026072,47.9098002 Z M19.1863849,31.8808697 C19.0036868,31.6079741 18.9134893,31.3350785 18.7307912,31.1523627 L17.8195802,29.3299999 C17.4541782,28.328621 17.273789,27.234706 17.273789,26.050623 C17.273789,20.4030804 22.0101207,15.8497487 27.7475945,16.2126701 C32.6666302,16.5780722 36.5820371,20.4934259 36.8549683,25.5023927 C36.9451599,27.4149826 36.4895662,29.2373454 35.6708853,30.7845273 L35.5806937,30.8747189 C35.4905021,31.057417 35.3979957,31.1476145 35.3077982,31.3303126 C33.6681393,34.1540543 32.3938293,37.433668 31.5728454,40.8929662 L22.4654716,40.8929662 C21.9196805,37.7084344 20.7355857,34.7019887 19.1860948,31.8803191 L19.1863849,31.8808697 Z M22.9213376,42.3546752 L31.3928589,42.3546752 C31.3026673,42.6275708 31.2101608,43.3560541 31.2101608,43.5387581 L23.1045212,43.5387581 C23.0120147,43.0831644 22.9218231,42.7177742 22.9218231,42.3546752 L22.9213376,42.3546752 Z M23.2844248,45.9069239 L23.1942332,45.268644 L23.1942332,44.903242 L31.1175241,44.903242 C31.1175241,45.268644 31.0273325,45.5415219 31.0273325,45.7219169 C30.9371409,46.1775106 30.4815413,46.5405918 30.0259536,46.5405918 L24.288243,46.5405918 C23.8326493,46.5429067 23.4672591,46.2700111 23.2845551,45.9069298 L23.2844248,45.9069239 Z" id="Fill-7"></path>
            <polygon id="Fill-8" points="36.4639409 37.4537158 35 35.9551405 35.9782301 35 37.442171 36.4985753"></polygon>
            <polygon id="Fill-9" points="41.0166116 30.882532 39 30.3159306 39.3700259 29 41.3866375 29.5666014"></polygon>
            <polygon id="Fill-10" points="39 22.5180363 41.0305246 22 41.3681718 23.3228574 39.3376472 23.8408937"></polygon>
            <polygon id="Fill-11" points="38.4537158 15.9782301 36.9551405 17.442171 36 16.4639409 37.4985753 15"></polygon>
            <polygon id="Fill-12" points="31.3159306 14.3866375 30 14.0166116 30.5666014 12 31.882532 12.3700259"></polygon>
            <polygon id="Fill-13" points="24.8408937 14.0305246 23.5180363 14.3681718 23 12.3376472 24.3228574 12"></polygon>
            <polygon id="Fill-14" points="18.442171 16.4985753 17.4639409 17.4537158 16 15.9551405 16.9782301 15"></polygon>
            <polygon id="Fill-15" points="12 23.3159306 12.3700259 22 14.3866375 22.5666014 14.0166116 23.882532"></polygon>
            <polygon id="Fill-16" points="12.3376472 30.8408937 12 29.5180363 14.0305246 29 14.3681718 30.3228574"></polygon>
            <polygon id="Fill-17" points="16 36.4662499 17.4962664 35 18.4514069 35.9759211 16.9551405 37.442171"></polygon>
        </g>
    </g>
</svg>