<?xml version="1.0" encoding="UTF-8" standalone="no"?>
<svg width="60px" height="78px" viewBox="0 0 60 78" version="1.1" xmlns="http://www.w3.org/2000/svg" xmlns:xlink="http://www.w3.org/1999/xlink">
    <!-- Generator: Sketch 3.8.1 (29687) - http://www.bohemiancoding.com/sketch -->
    <title>secured_id@1x</title>
    <desc>Created with Sketch.</desc>
    <defs></defs>
    <g id="Page-1" stroke="none" stroke-width="1" fill="none" fill-rule="evenodd">
        <g id="secured_id" fill="#575757">
            <path d="M58.2153846,11.0474257 C39.4530769,11.0474257 31.0638462,1.30051485 30.9884615,1.21015842 C30.5016846,0.61890297 29.5010769,0.61890297 29.0143077,1.21015842 C28.9361846,1.31272455 20.6366154,11.0474257 1.78507692,11.0474257 C1.07894615,11.0474257 0.502,11.6266337 0.502,12.3355842 L0.502,36.9032673 C0.502,50.3424356 6.51761538,63.1035446 16.5989231,71.0587738 C20.6644615,74.2655006 25.0512308,76.5823322 29.6427692,77.9459421 C29.7569538,77.9851591 29.8861615,77.997226 30.0033462,77.997226 C30.1175308,77.997226 30.2467385,77.9851591 30.3639231,77.9459421 C34.9553077,76.5824095 39.3423846,74.2625659 43.4077692,71.0587738 C53.4831538,63.1035446 59.4985385,50.3432079 59.4985385,36.9156238 L59.4985385,12.3355842 C59.4985385,11.6266568 58.9216154,11.0474257 58.2154615,11.0474257 L58.2153846,11.0474257 Z M56.9323077,36.9156238 C56.9323077,49.5585743 51.2893077,61.5713465 41.8238462,69.0408119 C38.1309231,71.9640341 34.1555385,74.0877965 30,75.3758777 C25.8443846,74.0877192 21.8807692,71.9519101 18.1761538,69.0408119 C8.71076923,61.5714238 3.06769231,49.5585743 3.06769231,36.9156238 L3.06769231,13.608297 C18.7646154,13.2613747 27.2684615,6.52805941 30,3.88841584 C32.7313846,6.52805941 41.2346154,13.2491881 56.9323077,13.608297 L56.9323077,36.9156238 Z" id="Fill-1"></path>
            <path d="M30.4476923,36.2066733 C29.7926462,36.478175 29.4861538,37.223299 29.7565846,37.8809703 C29.7836308,37.9322572 31.7187385,42.9550634 31.1808923,58.6482772 C31.1538462,59.3572046 31.7067308,59.9605307 32.4128923,59.9756673 L32.4639769,59.9756673 C33.1550846,59.9756673 33.7199769,59.4356756 33.7470538,58.7387881 C34.3239769,42.2823327 32.2205923,37.0941743 32.1304385,36.8887485 C31.8479846,36.2311081 31.1028231,35.923402 30.4477462,36.2069745 L30.4476923,36.2066733 Z" id="Fill-2"></path>
            <path d="M19.9461538,19.6598614 C19.6516846,19.8649937 19.3572077,20.0731533 19.0476923,20.2662226 C18.4587538,20.6523612 18.2904769,21.4518226 18.6750923,22.043078 C19.0597077,22.6343335 19.8560154,22.8032923 20.4449385,22.4171537 C20.7664538,22.2120214 21.0849615,21.9917988 21.4064769,21.7595133 C22.2267846,21.1923683 22.9960154,20.6523766 23.8554,20.2904103 C26.1120154,19.3371113 28.4978615,18.8604618 30.9467846,18.8604618 C38.3596308,18.8604618 45.0275538,23.2890083 47.9152462,30.1519271 C49.4417077,33.7569172 50.2620154,36.7192954 50.5324,39.4733133 C50.5955,40.1430244 51.1604077,40.6317291 51.8034,40.6317291 L51.9326077,40.6317291 C52.6387385,40.5683792 53.1495308,39.9378844 53.0864538,39.2289648 C52.7919846,36.2031826 51.8935308,33.0115152 50.2769923,29.1468855 C46.9806846,21.3306677 39.4023769,16.283836 30.9500692,16.283836 C28.1556077,16.283836 25.4362231,16.8238277 22.8700692,17.9068539 C21.7553,18.3985782 20.8298385,19.0411747 19.9463769,19.659537 L19.9461538,19.6598614 Z" id="Fill-3"></path>
            <path d="M12.0584615,37.2863168 C12.1996846,31.8531921 13.7140769,27.901604 16.8030769,24.8364356 C17.3018769,24.3356602 17.3169,23.5241822 16.8151,23.0203485 C16.3163,22.5195731 15.5080231,22.5044905 15.0061769,23.0082778 C11.4154077,26.5619887 9.66963846,31.0808917 9.50440769,37.2228125 C9.40224615,40.8398501 9.82592308,44.097856 10.8265615,47.4709313 C10.9798077,48.0260055 11.4936308,48.3849986 12.0464846,48.3849986 C12.1606692,48.3849986 12.2898769,48.3729356 12.4190846,48.3337194 C13.0981692,48.1285794 13.4827769,47.4196521 13.2784692,46.7378857 C12.3530077,43.6215927 11.9683923,40.6229947 12.0585462,37.286757 L12.0584615,37.2863168 Z" id="Fill-4"></path>
            <path d="M47.8007692,37.0422772 C47.5573769,35.4856752 47.2118308,34.0677743 46.7370769,32.6891822 C44.6066923,26.4053941 37.7978462,21.1142911 31.5386154,20.8818356 C29.1407692,20.7913325 26.8060769,21.2166873 24.6125385,22.1428099 C18.5217692,24.6919426 14.5586923,30.6139188 14.4925385,37.2323347 C14.4805154,38.7889366 14.6848462,40.3486277 15.1205462,41.8690099 C15.3399,42.6684713 15.5562462,43.4407485 15.6734308,44.2250733 C15.9438615,46.0803149 16.0189846,49.3353861 15.9048,54.796004 C15.8927769,55.5049313 16.4576846,56.0962099 17.1608,56.1082574 L17.1878462,56.1082574 C17.8789538,56.1082574 18.4588462,55.5531832 18.4709231,54.8472832 C18.5851077,49.2452614 18.5099846,45.8487089 18.2155154,43.8516 C18.0742923,42.9103485 17.8309,42.0114178 17.5995308,41.1606772 C17.2389538,39.8846436 17.0616692,38.5723129 17.0736923,37.2600594 C17.1247692,31.673097 20.4721538,26.6775446 25.616,24.5267525 C27.476,23.7424277 29.4381538,23.3803842 31.4633846,23.4588475 C36.6586923,23.6398539 42.5449231,28.2493604 44.3272231,33.513897 C44.7509,34.7507762 45.0573923,36.0388574 45.2887615,37.4416218 C45.7364769,40.2622099 45.6343154,43.5565129 45.4930846,48.1144931 L45.3909231,50.9230337 C45.3638846,51.631961 45.9287846,52.2232396 46.6349308,52.2504238 L46.6739923,52.2504238 C47.3651,52.2504238 47.9299923,51.6953495 47.9570692,51.001497 L48.0472154,48.2080158 C48.1854385,43.5080139 48.2876,40.1083723 47.8008231,37.043204 L47.8007692,37.0422772 Z" id="Fill-5"></path>
            <path d="M43.17,37.0028911 C42.8755308,35.4824317 42.4518538,34.0796673 41.8869231,32.7281822 C39.9367692,28.0915069 35.8713077,25.2075149 31.28,25.2075149 C30.4206154,25.2075149 29.5612308,25.298018 28.7289231,25.4910873 C28.0378154,25.6449404 27.5990769,26.3266913 27.7553846,27.0235943 C27.9086308,27.717439 28.5876923,28.1427784 29.2818462,28.0009883 C29.9368923,27.8592059 30.604,27.7807657 31.2830769,27.7807657 C34.8227692,27.7807657 37.9777692,30.0583657 39.5284615,33.7296945 C40.0272615,34.9152945 40.3878462,36.137037 40.6583077,37.4885222 C41.2472462,40.553536 41.8752308,45.2777103 41.5416923,54.7805816 C41.5146538,55.4895089 42.0675308,56.092835 42.7736923,56.1079717 L42.8247769,56.1079717 C43.5158846,56.1079717 44.0807769,55.56798 44.1078538,54.8710925 C44.3782846,47.2538905 44.0808077,41.7423796 43.1703154,37.0029143 L43.17,37.0028911 Z" id="Fill-6"></path>
            <path d="M22.1907692,40.6472673 C21.8963,39.5401307 21.7550692,38.4209465 21.7941385,37.2866257 C21.8722615,34.4539129 23.1012154,30.6046515 25.6162923,28.8394574 C26.1932154,28.4261655 26.3344385,27.6297624 25.9227846,27.0505545 C25.5111231,26.4713465 24.7178615,26.3295642 24.1409385,26.7428483 C20.8957077,29.035585 19.3302462,33.6571236 19.2280923,37.2226503 C19.1890308,38.6013196 19.3573,39.9768998 19.7148692,41.3163374 C19.7268846,41.3796873 19.7659538,41.4701905 19.8050154,41.5999099 C21.1271692,45.7961554 21.2022462,52.4928802 21.0370154,57.3713554 C21.0099692,58.0802828 21.5628538,58.6836089 22.2690154,58.6987455 L22.3201,58.6987455 C23.0112077,58.6987455 23.5761,58.1587539 23.6031769,57.4618663 C23.8585846,50.0709416 23.4108692,44.4690743 22.2570231,40.8277871 L22.1907692,40.6472673 Z" id="Fill-7"></path>
            <path d="M38.9784615,53.8331287 L38.9784615,53.5495562 C38.9784615,52.8406289 38.4135538,52.2613978 37.7074615,52.2493503 L37.6954462,52.2493503 C36.9893154,52.2493503 36.4123692,52.8164952 36.4123692,53.525384 L36.4123692,53.8330901 C36.4123692,54.258445 36.4123692,54.644599 36.4243846,55.0186901 C36.4243846,55.3656125 36.4364077,55.7125349 36.4364077,56.1137792 C36.4364077,56.8227065 37.0133308,57.3898129 37.7194846,57.3898129 C38.4256154,57.3898129 39.0025615,56.798542 39.0025615,56.0896069 C39.0025615,55.6914053 39.0025615,55.3293927 38.9905385,54.9704228 C38.9785231,54.6174689 38.9785231,54.2433933 38.9785231,53.8330901 L38.9784615,53.8331287 Z" id="Fill-8"></path>
            <path d="M37.7192308,36.9156238 C37.4127385,35.7572079 37.1423077,35.1116614 37.0131,34.8039089 C35.9734077,32.3573347 33.6026385,30.7735485 30.9464077,30.7735485 C30.0750231,30.7735485 29.2156385,30.9394646 28.4073308,31.2894065 C26.0214846,32.2939848 24.4319462,34.622864 24.3538692,37.2262877 C24.3268231,38.1011234 24.4830769,38.9639115 24.7775462,39.7361887 C25.0840385,40.6623036 26.5984692,45.9686976 26.1507769,58.6508026 C26.1237308,59.3597299 26.6766154,59.963056 27.3827769,59.9781927 L27.4338615,59.9781927 C28.1249692,59.9781927 28.6898615,59.438201 28.7169385,58.7413135 C29.1646538,45.9446798 27.6772462,40.3425808 27.1784769,38.8489966 C26.9861692,38.3482212 26.8960231,37.8323709 26.9080462,37.3044422 C26.9471077,35.7086085 27.9206615,34.2907848 29.3840462,33.6723451 C29.8828462,33.4672129 30.3966615,33.364639 30.9345077,33.364639 C32.5511231,33.364639 34.0114308,34.3299855 34.6394308,35.8353083 C34.7415923,36.0917275 34.9729615,36.6196331 35.2283692,37.6121638 C35.7421923,39.5428568 36.3822154,43.1870786 36.5354462,49.6125796 C36.5474615,50.3064244 37.1243846,50.8735539 37.8185231,50.8735539 L37.8455615,50.8735539 C38.5516923,50.8614832 39.1165615,50.2671927 39.1015615,49.5613004 C38.9903846,44.2398469 38.5036077,39.8869836 37.7193308,36.9152608 L37.7192308,36.9156238 Z" id="Fill-9"></path>
        </g>
    </g>
</svg>